<?xml version="1.0" encoding="UTF-8"?>
<svg width="234px" height="234px" viewBox="0 0 234 234" version="1.1" xmlns="http://www.w3.org/2000/svg" xmlns:xlink="http://www.w3.org/1999/xlink">
    <title>9A853BA3-EC58-4A66-A3DF-8D173A90EDCB</title>
    <defs>
        <polygon id="path-1" points="0 0 204.389063 0 204.389063 199.999133 0 199.999133"></polygon>
    </defs>
    <g id="Screens" stroke="none" stroke-width="1" fill="none" fill-rule="evenodd">
        <g id="//-States" transform="translate(-129.000000, -381.000000)">
            <rect id="Background" fill="#39B8FF" x="0" y="0" width="1440" height="2472"></rect>
            <g id="happyhead-0-not-happy-at-all" transform="translate(129.000000, 381.000000)">
                <g id="Group-5" transform="translate(15.000000, 17.000867)">
                    <path d="M140.491557,178.379912 C140.491557,165.935699 148.787176,153.933446 159.020174,153.933446 C169.257506,153.933446 177.553125,165.935699 177.553125,178.379912 C177.553125,190.828459 169.257506,198.047142 159.020174,198.047142 C148.787176,198.047142 140.491557,190.828459 140.491557,178.379912" id="Fill-5" fill="#FFFFFF"></path>
                    <path d="M26.8359384,178.379912 C26.8359384,165.935699 35.1315577,153.933446 45.3645551,153.933446 C55.6018868,153.933446 63.8975061,165.935699 63.8975061,178.379912 C63.8975061,190.828459 55.6018868,198.047142 45.3645551,198.047142 C35.1315577,198.047142 26.8359384,190.828459 26.8359384,178.379912" id="Fill-7" fill="#FFFFFF"></path>
                    <g id="Group-37" transform="translate(-0.000000, 0.000000)">
                        <mask id="mask-2" fill="white">
                            <use xlink:href="#path-1"></use>
                        </mask>
                        <g id="Clip-36"></g>
                        <path d="M204.389063,89.1676416 C204.389063,145.59123 158.633132,200 102.193448,200 C45.7537644,200 -0.00216708968,145.59123 -0.00216708968,89.1676416 C-0.00216708968,32.744053 45.7537644,0 102.193448,0 C158.633132,0 204.389063,32.744053 204.389063,89.1676416" id="Fill-35" fill="#FFFFFF" mask="url(#mask-2)"></path>
                    </g>
                    <path d="M102.196049,132.325057 C101.805972,132.316392 101.463572,132.260063 101.064828,132.260063 C45.2145925,132.260063 38.943035,184.909658 38.943035,184.909658 C38.943035,184.909658 45.2145925,191.491399 60.2888683,178.990857 C71.4753853,169.718359 132.912378,169.718359 144.098895,178.990857 C159.17317,191.491399 165.449062,184.909658 165.449062,184.909658 C165.449062,184.909658 159.17317,132.260063 103.327269,132.260063 C102.928525,132.260063 102.586125,132.316392 102.196049,132.325057 Z" id="Fill-52" fill="#39B8FF"></path>
                    <path d="M56.76258,156.171845 C64.252042,146.076086 77.5883118,136.201309 101.109903,136.201309 L102.10243,136.26197 C102.10243,136.26197 103.203312,136.214307 103.21198,136.214307 C126.737906,136.214307 140.100181,146.015425 147.624316,156.098184 C137.989435,148.779843 112.768846,147.982582 102.241124,147.982582 C91.678729,147.982582 66.3281139,148.788509 56.76258,156.171845" id="Fill-54" fill="#FFFFFF"></path>
                    <path d="M69.0707826,112.173838 C61.1565711,114.301313 53.1340051,113.027428 46.5503866,109.257767 C50.6158468,118.829239 61.2172496,124.18909 71.5542673,121.416006 C81.8912851,118.638589 88.3752174,108.685818 87.0923004,98.3604142 C83.2868909,104.929156 76.9806599,110.050695 69.0707826,112.173838" id="Fill-60" fill="#39B8FF"></path>
                    <path d="M135.319581,112.173838 C143.229458,114.301313 151.252024,113.027428 157.839977,109.257767 C153.770182,118.829239 143.173114,124.18909 132.836096,121.416006 C122.499078,118.638589 116.015146,108.685818 117.293729,98.3604142 C121.103473,104.929156 127.409704,110.050695 135.319581,112.173838" id="Fill-62" fill="#39B8FF"></path>
                </g>
            </g>
        </g>
    </g>
</svg>