<?xml version="1.0" encoding="UTF-8"?>
<svg width="234px" height="234px" viewBox="0 0 234 234" version="1.1" xmlns="http://www.w3.org/2000/svg" xmlns:xlink="http://www.w3.org/1999/xlink">
    <title>EF657F41-1A59-470F-9823-640D9F55893C</title>
    <defs>
        <polygon id="path-1" points="6.15923932e-14 0 204.39123 0 204.39123 199.999133 6.15923932e-14 199.999133"></polygon>
    </defs>
    <g id="Screens" stroke="none" stroke-width="1" fill="none" fill-rule="evenodd">
        <g id="//-States" transform="translate(-129.000000, -665.000000)">
            <rect id="Background" fill="#39B8FF" x="0" y="0" width="1440" height="2472"></rect>
            <g id="happyhead-1-not-happy" transform="translate(129.000000, 665.000000)">
                <g id="Group-4" transform="translate(14.890686, 17.000867)">
                    <g id="Group-29" transform="translate(0.000000, 0.000000)">
                        <mask id="mask-2" fill="white">
                            <use xlink:href="#path-1"></use>
                        </mask>
                        <g id="Clip-28"></g>
                        <path d="M204.39123,89.1676416 C204.39123,145.59123 158.635299,200 102.195615,200 C45.7559315,200 6.15923932e-14,145.59123 6.15923932e-14,89.1676416 C6.15923932e-14,32.744053 45.7559315,0 102.195615,0 C158.635299,0 204.39123,32.744053 204.39123,89.1676416" id="Fill-27" fill="#FFFFFF" mask="url(#mask-2)"></path>
                    </g>
                    <path d="M102.736954,156.791455 C125.157664,156.791455 145.45896,161.315048 160.190836,168.63339 C156.238064,154.551324 132.027338,143.710299 102.736954,143.710299 C73.4465701,143.710299 49.2401783,154.551324 45.2874067,168.63339 C60.0192824,161.315048 80.3205785,156.791455 102.736954,156.791455" id="Fill-33" fill="#39B8FF"></path>
                    <path d="M66.2392632,118.467871 C74.4308622,118.467871 81.8509773,121.77824 87.234028,127.129425 C85.7864121,116.830019 76.940352,108.900732 66.2392632,108.900732 C55.5381743,108.900732 46.6921143,116.830019 45.2488325,127.129425 C50.6275491,121.77824 58.0476642,118.467871 66.2392632,118.467871" id="Fill-64" fill="#39B8FF"></path>
                    <path d="M138.153267,118.467871 C146.344866,118.467871 153.764981,121.77824 159.143698,127.129425 C157.700416,116.830019 148.854356,108.900732 138.153267,108.900732 C127.452179,108.900732 118.606118,116.830019 117.162837,127.129425 C122.541553,121.77824 129.961668,118.467871 138.153267,118.467871" id="Fill-66" fill="#39B8FF"></path>
                </g>
            </g>
        </g>
    </g>
</svg>