<?xml version="1.0" encoding="UTF-8"?>
<svg width="234px" height="234px" viewBox="0 0 234 234" version="1.1" xmlns="http://www.w3.org/2000/svg" xmlns:xlink="http://www.w3.org/1999/xlink">
    <title>B12D9ECF-77CA-41C3-93D8-8EA7B4D7D385</title>
    <defs>
        <polygon id="path-1" points="0 0 204.39123 0 204.39123 199.999133 0 199.999133"></polygon>
    </defs>
    <g id="Screens" stroke="none" stroke-width="1" fill="none" fill-rule="evenodd">
        <g id="//-States" transform="translate(-129.000000, -949.000000)">
            <rect id="Background" fill="#39B8FF" x="0" y="0" width="1440" height="2472"></rect>
            <g id="happyhead-3-neutral" transform="translate(129.000000, 949.000000)">
                <g id="Group-3" transform="translate(14.980296, 17.000867)">
                    <g id="Group-32" transform="translate(0.000000, 0.000000)">
                        <mask id="mask-2" fill="white">
                            <use xlink:href="#path-1"></use>
                        </mask>
                        <g id="Clip-31"></g>
                        <path d="M204.39123,89.1676416 C204.39123,145.59123 158.635299,200 102.195615,200 C45.7559315,200 0,145.59123 0,89.1676416 C0,32.744053 45.7559315,0 102.195615,0 C158.635299,0 204.39123,32.744053 204.39123,89.1676416" id="Fill-30" fill="#FFFFFF" mask="url(#mask-2)"></path>
                    </g>
                    <path d="M72.9880139,92.3857186 C72.9880139,100.427662 66.4650739,106.953074 58.4165029,106.953074 C50.3679318,106.953074 43.8449918,100.427662 43.8449918,92.3857186 C43.8449918,84.3394428 50.3679318,77.818363 58.4165029,77.818363 C66.4650739,77.818363 72.9880139,84.3394428 72.9880139,92.3857186" id="Fill-56" fill="#39B8FF"></path>
                    <path d="M160.547972,92.3857186 C160.547972,100.427662 154.025032,106.953074 145.976461,106.953074 C137.92789,106.953074 131.40495,100.427662 131.40495,92.3857186 C131.40495,84.3394428 137.92789,77.818363 145.976461,77.818363 C154.025032,77.818363 160.547972,84.3394428 160.547972,92.3857186" id="Fill-58" fill="#39B8FF"></path>
                    <polygon id="Fill-68" fill="#39B8FF" points="69.7499485 152.397418 134.641282 152.397418 134.641282 145.824342 69.7499485 145.824342"></polygon>
                </g>
            </g>
        </g>
    </g>
</svg>