<?xml version="1.0" encoding="UTF-8"?>
<svg width="234px" height="234px" viewBox="0 0 234 234" version="1.1" xmlns="http://www.w3.org/2000/svg" xmlns:xlink="http://www.w3.org/1999/xlink">
    <title>0C467DC5-416B-4676-B61E-CD52EB052BEC</title>
    <defs>
        <polygon id="path-1" points="1.23184786e-13 0 204.386896 0 204.386896 199.999133 1.23184786e-13 199.999133"></polygon>
    </defs>
    <g id="Screens" stroke="none" stroke-width="1" fill="none" fill-rule="evenodd">
        <g id="//-States" transform="translate(-129.000000, -1233.000000)">
            <rect id="Background" fill="#39B8FF" x="0" y="0" width="1440" height="2472"></rect>
            <g id="happyhead-4-pretty-happy" transform="translate(129.000000, 1233.000000)">
                <g id="Group-2" transform="translate(15.197444, 17.000867)">
                    <g id="Group-11" transform="translate(-0.000000, 0.000000)">
                        <mask id="mask-2" fill="white">
                            <use xlink:href="#path-1"></use>
                        </mask>
                        <g id="Clip-10"></g>
                        <path d="M204.386896,89.1676416 C204.386896,145.59123 158.635299,200 102.191281,200 C45.7515973,200 1.23184786e-13,145.59123 1.23184786e-13,89.1676416 C1.23184786e-13,32.744053 45.7515973,0 102.191281,0 C158.635299,0 204.386896,32.744053 204.386896,89.1676416" id="Fill-9" fill="#FFFFFF" mask="url(#mask-2)"></path>
                    </g>
                    <path d="M65.191692,94.4018372 C73.383291,94.4018372 80.8034061,97.7122059 86.1864569,103.063391 C84.738841,92.7639846 75.8927809,84.8346982 65.191692,84.8346982 C54.4906032,84.8346982 45.6445431,92.7639846 44.2012614,103.063391 C49.579978,97.7122059 57.000093,94.4018372 65.191692,94.4018372" id="Fill-12" fill="#39B8FF"></path>
                    <path d="M137.105696,94.4018372 C145.297295,94.4018372 152.71741,97.7122059 158.096127,103.063391 C156.652845,92.7639846 147.806785,84.8346982 137.105696,84.8346982 C126.404607,84.8346982 117.558547,92.7639846 116.115266,103.063391 C121.493982,97.7122059 128.914097,94.4018372 137.105696,94.4018372" id="Fill-14" fill="#39B8FF"></path>
                    <path d="M102.734787,141.784739 C80.3184114,141.784739 60.0171153,132.728888 45.2852396,118.079206 C49.2380112,146.273669 73.444403,167.968716 102.734787,167.968716 C132.025171,167.968716 156.235897,146.273669 160.188669,118.079206 C145.456793,132.728888 125.155497,141.784739 102.734787,141.784739" id="Fill-16" fill="#39B8FF"></path>
                </g>
            </g>
        </g>
    </g>
</svg>