<?xml version="1.0" encoding="UTF-8"?>
<svg width="234px" height="234px" viewBox="0 0 234 234" version="1.1" xmlns="http://www.w3.org/2000/svg" xmlns:xlink="http://www.w3.org/1999/xlink">
    <title>E8808ADE-DF37-471E-B893-F5BBC61000DB</title>
    <defs>
        <polygon id="path-1" points="0 0 204.39123 0 204.39123 199.999133 0 199.999133"></polygon>
    </defs>
    <g id="Screens" stroke="none" stroke-width="1" fill="none" fill-rule="evenodd">
        <g id="//-States" transform="translate(-129.000000, -1517.000000)">
            <rect id="Background" fill="#39B8FF" x="0" y="0" width="1440" height="2472"></rect>
            <g id="happyhead-5-super-happy" transform="translate(129.000000, 1517.000000)">
                <g id="Group" transform="translate(9.307292, 17.000867)">
                    <path d="M52.798973,53.8649855 C52.798973,68.441007 40.9753317,82.4927423 26.3994865,82.4927423 C11.8236413,82.4927423 -2.27373675e-13,68.441007 -2.27373675e-13,53.8649855 C-2.27373675e-13,39.2932969 11.8236413,30.8353915 26.3994865,30.8353915 C40.9753317,30.8353915 52.798973,39.2932969 52.798973,53.8649855" id="Fill-1" fill="#FFFFFF"></path>
                    <path d="M214.691841,53.8649855 C214.691841,68.441007 202.872534,82.4927423 188.296689,82.4927423 C173.716509,82.4927423 161.897202,68.441007 161.897202,53.8649855 C161.897202,39.2932969 173.716509,30.8353915 188.296689,30.8353915 C202.872534,30.8353915 214.691841,39.2932969 214.691841,53.8649855" id="Fill-3" fill="#FFFFFF"></path>
                    <g id="Group-20" transform="translate(5.153773, 0.000000)">
                        <mask id="mask-2" fill="white">
                            <use xlink:href="#path-1"></use>
                        </mask>
                        <g id="Clip-19"></g>
                        <path d="M204.39123,89.1676416 C204.39123,145.59123 158.635299,200 102.195615,200 C45.7515973,200 0,145.59123 0,89.1676416 C0,32.744053 45.7515973,0 102.195615,0 C158.635299,0 204.39123,32.744053 204.39123,89.1676416" id="Fill-18" fill="#FFFFFF" mask="url(#mask-2)"></path>
                    </g>
                    <path d="M71.3930359,31.0598379 C79.5846349,31.0598379 87.0047499,32.7150223 92.3834665,35.3927813 C90.9401848,30.2409117 82.0941247,26.2762685 71.3930359,26.2762685 C60.6876128,26.2762685 51.8415528,30.2409117 50.398271,35.3927813 C55.7813218,32.7150223 63.1971027,31.0598379 71.3930359,31.0598379" id="Fill-21" fill="#39B8FF"></path>
                    <path d="M143.304873,31.0598379 C151.496472,31.0598379 158.916587,32.7150223 164.299638,35.3927813 C162.852022,30.2409117 154.010296,26.2762685 143.304873,26.2762685 C132.59945,26.2762685 123.757724,30.2409117 122.310108,35.3927813 C127.693159,32.7150223 135.113274,31.0598379 143.304873,31.0598379" id="Fill-23" fill="#39B8FF"></path>
                    <path d="M107.348954,72.5447376 C75.7614552,72.5447376 47.1558715,63.488886 26.3994865,48.8392045 C31.968907,77.033667 38.4961811,159.389922 107.348954,159.389922 C176.197394,159.389922 182.729002,77.033667 188.298422,48.8392045 C167.542037,63.488886 138.936454,72.5447376 107.348954,72.5447376" id="Fill-25" fill="#39B8FF"></path>
                    <path d="M177.68185,66.0093592 C174.171165,67.5778847 170.556459,68.9817583 166.902746,70.303306 L170.15338,96.1969756 C173.217645,86.6125049 175.653454,76.4084232 177.68185,66.0093592" id="Fill-38" fill="#FFFFFF"></path>
                    <path d="M53.6246342,72.3393561 L49.07808,108.575762 C53.8413431,120.001733 59.8701866,130.032497 67.8017348,137.623814 L72.0795699,77.0752632 C65.7863414,75.8187096 59.61447,74.2545171 53.6246342,72.3393561" id="Fill-40" fill="#FFFFFF"></path>
                    <path d="M79.1174103,78.3456822 L74.5491853,143.07119 C82.4157208,148.539365 91.8598977,151.910395 103.250121,152.577668 L103.250121,80.4428268 C95.0758587,80.2608432 87.0012826,79.584904 79.1174103,78.3456822" id="Fill-42" fill="#FFFFFF"></path>
                    <path d="M110.362509,80.4722908 L110.362509,152.641796 C121.744064,152.152173 131.205578,148.989124 139.111121,143.759262 L134.503888,78.5138004 C126.615682,79.7053599 118.541106,80.3379696 110.362509,80.4722908" id="Fill-44" fill="#FFFFFF"></path>
                    <path d="M164.780732,110.535985 L160.026137,72.6443953 C154.027633,74.5162269 147.851427,76.0544218 141.54953,77.2676459 L145.870707,138.509467 C153.82826,131.238789 159.952456,121.610988 164.780732,110.535985" id="Fill-46" fill="#FFFFFF"></path>
                    <path d="M37.0156254,66.0093592 C38.8706542,75.5158369 41.0724173,84.8533299 43.7769452,93.7141991 L46.7545264,69.9393388 C43.4518818,68.7174488 40.1925789,67.4305646 37.0156254,66.0093592" id="Fill-48" fill="#FFFFFF"></path>
                    <path d="M107.348954,80.5481173 C105.97502,80.5481173 104.618421,80.4744573 103.253155,80.4441267 L103.253155,152.578968 C104.614087,152.656961 105.927344,152.81728 107.348954,152.81728 C108.393492,152.81728 109.347011,152.682959 110.361209,152.639629 L110.361209,80.4701244 C109.355679,80.4874561 108.354484,80.5481173 107.348954,80.5481173" id="Fill-50" fill="#39B8FF"></path>
                </g>
            </g>
        </g>
    </g>
</svg>